# xmcd
#
# Track frame offsets:
#	150
#	20534
#	44502
#	67493
#	83058
#	101313
#	118594
#	135490
#	158990
#	198681
#
# Disc length: 2979 seconds
#
# Revision: 0
# Processed by: cddbd v1.5.2PL0 Copyright (c) Steve Scherf et al.
# Submitted via: EasyCDDAExtractor 16.0.6.1
#
DISCID=8b0ba10a
DTITLE=Συλλογικός δίσκος - Ο ξιπόλητος πρίγκιπας-Χαΐνηδες 1
DYEAR=2000
DGENRE=Έντεχνη
TTITLE0=Κώτη Μαρία - Μεντηλέν
TTITLE1=Ζαχαριουδάκης Δημήτρης - Δε μ' αγαπάς ειλικρινά
TTITLE2=Ιωαννίδης Αλκίνοος - Η επιστροφή του ασώτου
TTITLE3=Σταυρακάκης Βασίλης - Ο καφενές
TTITLE4=Κώτη Μαρία - Όλοι μου λέν πως έχω μάτια δακρυσμένα
TTITLE5=Σταυρακάκης Μιχάλης - Η παντιγέρα
TTITLE6=Κώτη Μαρία - Δε σ' αδικώ
TTITLE7=Σταυρακάκης Μιχάλης - Πάει καιρός
TTITLE8=Αποστολάκης Δημήτρης - Ο φονιάς
TTITLE9=Κώτη Μαρία - Η Ανατολή
EXTD=
EXTT0=
EXTT1=
EXTT2=
EXTT3=
EXTT4=
EXTT5=
EXTT6=
EXTT7=
EXTT8=
EXTT9=
PLAYORDER=
